# xmcd CD database file
#
# Track frame offsets:
#	150
#	40014
#	65666
#	100769
#	125674
#	144056
#	177359
#	200492
#	221431
#	244867
#	276134
#
# Disc length: 4160 seconds
#
# Revision: 0
# Processed by: cddbd v1.5.2PL0 Copyright (c) Steve Scherf et al.
# Submitted via: CDex 1.51
#
DISCID=9f103e0b
DTITLE=Grands Formats - 21 orchestres aujourd'hui CD1
DYEAR=2006
DGENRE=Jazz
TTITLE0=Tango
TTITLE1=To the clouds
TTITLE2=Buleria
TTITLE3=In the morning you always come back
TTITLE4=Vos désordres sont désirs
TTITLE5=Acidolem
TTITLE6=Main de fer dans gant de velours
TTITLE7=La sauce à rachid
TTITLE8=Rwa dan lé bwa
TTITLE9=Entre les parenthèses du silence
TTITLE10=Rose
EXTD=YEAR: 2006
EXTT0=
EXTT1=
EXTT2=
EXTT3=
EXTT4=
EXTT5=
EXTT6=
EXTT7=
EXTT8=
EXTT9=
EXTT10=
PLAYORDER=
